# xmcd
#
# Track frame offsets:
#	150
#	15635
#	30845
#	45449
#	60619
#	75969
#	91562
#	107260
#	122881
#	137573
#
# Disc length: 2038 seconds
#
# Revision: 0
# Processed by: cddbd v1.5.2PL0 Copyright (c) Steve Scherf et al.
# Submitted via: EasyCDDAExtractor 16.0.6.1
#
DISCID=6007f40a
DTITLE=Συλλογικός δίσκος - Λαϊκό τραγούδι 1954-1967, 1955-2
DYEAR=2008
DGENRE=Λαϊκή
TTITLE0=Γαβαλάς Πάνος - Στο πικραμένο δειλινό [Σωτήρης Ζωϊόπουλος-Χαρ. Βασιλει
TTITLE0=άδης]
TTITLE1=Καζαντζίδης Στέλιος - Η κοινωνία [Χρήστος Κολοκοτρώνης]
TTITLE2=Καζαντζίδης Στέλιος - Μιά μέρα πριν πεθάνω [Μανώλης Χιώτης-Χρήστος Κολ
TTITLE2=οκοτρώνης]
TTITLE3=Λύδια Γιώτα-Τζιβάνης Γιάννης - Ως πότε θά 'μαι σκλάβα [Μπάμπης Μπακάλη
TTITLE3=ς-Κώστας Βίρβος]
TTITLE4=Περπινιάδης Βαγγέλης - Βάλε μπρος σοφέρ τ' αμάξι [Γεράσιμος Κλουβάτος]
TTITLE5=Καζαντζίδης Στέλιος-Νάχη Ζωή - Άνοιξε και μετάνιωσα [Μανώλης Χιώτης-Χρ
TTITLE5=ήστος Κολοκοτρώνης]
TTITLE6=Καζαντζίδης Στέλιος - Είδαν τα μάτια μου πολλά [Γιάννης Παπαϊωάννου-Ε.
TTITLE6=Μουστακίδης]
TTITLE7=Γκρέϋ Καίτη-Ρουμελιώτης Δημήτρης - Σχίσε γιατρέ τα στήθια μου [Θεόδωρο
TTITLE7=ς Δερβενιώτης-Νίκος Ρούτσος]
TTITLE8=Μπέλλου Σωτηρία - Σαν τον εξόριστο περνώ [Μπάμπης Μπακάλης]
TTITLE9=Γαβαλάς Πάνος-Καλδάρας Απόστολος - Εγώ 'μαι 'κείνο το παιδί [Απόστολος
TTITLE9=Καλδάρας]
EXTD=
EXTT0=
EXTT1=
EXTT2=
EXTT3=
EXTT4=
EXTT5=
EXTT6=
EXTT7=
EXTT8=
EXTT9=
PLAYORDER=
